#!OML:ASF F:\VICON\USERDATA\INSTALL\rory3\rory3.ASF
:FULLY-SPECIFIED
:DEGREES
204
root -2.08214 20.9364 30.0215 25.2011 20.0489 10.3582
lowerback -21.1741 -6.07132 0.376638
upperback -10.6869 -7.86575 0.248006
thorax 0.107891 -3.92089 -1.559
lowerneck -8.10651 -3.7353 -9.35522
upperneck 25.7026 -3.53384 -0.18036
head 9.66675 -2.55919 1.13959
rclavicle -8.54774e-015 6.36111e-015
rhumerus -24.7991 15.1169 2.47505
rradius 29.1927
rwrist -7.33276
rhand -20.6638 -49.6594
rfingers 7.12502
rthumb 5.69899 280.437
lclavicle -8.54774e-015 6.36111e-015
lhumerus -39.3502 -18.9524 2.34539
lradius 24.0727
lwrist 6.76046
lhand -34.528 -35.2635
lfingers 7.12502
lthumb -7.68919 -5.42325
rfemur -63.1684 -6.88057 1.79938
rtibia 32.5441
rfoot 15.8982 -35.4002
rtoes 16.7081
lfemur 15.2866 14.2323 2.47357
ltibia 95.5134
lfoot 16.5555 5.55746
ltoes 28.5302
205
root -2.09504 20.7429 30.4948 25.5335 20.205 10.766
lowerback -21.5952 -5.98119 0.0241453
upperback -11.0076 -7.65908 0.040277
thorax -0.0153666 -3.80738 -1.56363
lowerneck -8.40625 -3.96024 -9.46249
upperneck 26.7421 -3.75986 -0.264916
head 10.1167 -2.71114 1.08981
rclavicle -3.81667e-014 -5.725e-014
rhumerus -26.8326 14.9961 2.54548
rradius 28.7291
rwrist -6.99515
rhand -20.4605 -48.8077
rfingers 7.12502
rthumb 5.89525 281.294
lclavicle -3.81667e-014 -5.725e-014
lhumerus -41.5696 -19.5659 2.46647
lradius 24.1999
lwrist 8.45052
lhand -34.636 -35.0427
lfingers 7.12502
lthumb -7.79344 -5.20636
rfemur -61.6422 -6.94894 1.91647
rtibia 32.3032
rfoot 9.18257 -38.3042
rtoes 24.0018
lfemur 15.1505 15.0006 3.48541
ltibia 96.1745
lfoot 14.9112 4.7284
ltoes 26.2342
206
root -2.09951 20.5418 30.967 25.5216 20.5656 10.6701
lowerback -21.9884 -5.81841 0.304104
upperback -11.1199 -7.48144 -0.0875963
thorax 0.00430135 -3.73048 -1.84577
lowerneck -9.4521 -4.25718 -9.14942
upperneck 27.8659 -3.97671 -0.751108
head 10.7326 -2.86275 0.807357
rclavicle -8.46823e-014 -1.59028e-014
rhumerus -28.2132 13.4279 2.92496
rradius 27.5466
rwrist -5.80314
rhand -19.4729 -48.1645
rfingers 7.12502
rthumb 6.84864 281.966
lclavicle -8.46823e-014 -1.59028e-014
lhumerus -43.9277 -19.9057 2.43391
lradius 24.7271
lwrist 10.6718
lhand -33.4254 -33.4182
lfingers 7.12502
lthumb -6.62488 -3.54178
rfemur -59.9907 -7.10384 2.74328
rtibia 32.1293
rfoot 5.36947 -39.4382
rtoes 27.3154
lfemur 15.1387 15.6949 5.09769
ltibia 96.6903
lfoot 12.9154 3.67009
ltoes 24.6482
207
root -2.09998 20.3291 31.4356 25.6692 20.715 10.8236
lowerback -22.5392 -5.74766 0.255945
upperback -11.1671 -7.3615 -0.207752
thorax 0.21339 -3.66659 -1.97307
lowerneck -9.23919 -4.23372 -9.08717
upperneck 27.7423 -3.98533 -0.732756
head 10.6423 -2.85447 0.808587
rclavicle -8.40859e-014 -9.54166e-015
rhumerus -29.3234 11.2053 3.55084
rradius 26.4423
rwrist -4.5397
rhand -18.1056 -47.4762
rfingers 7.12502
rthumb 8.16841 282.702
lclavicle -8.40859e-014 -9.54166e-015
lhumerus -46.3263 -19.8308 2.18787
lradius 24.9401
lwrist 12.2829
lhand -32.917 -32.1886
lfingers 7.12502
lthumb -6.13406 -2.29736
rfemur -58.6398 -7.53715 3.51618
rtibia 32.1398
rfoot 3.94773 -39.9428
rtoes 28.1138
lfemur 15.0616 16.4329 6.01879
ltibia 97.0338
lfoot 10.4057 2.65821
ltoes 21.4008
